<?xml version="1.0" encoding="UTF-8"?>
<svg width="214px" height="214px" viewBox="0 0 214 214" version="1.1" xmlns="http://www.w3.org/2000/svg" xmlns:xlink="http://www.w3.org/1999/xlink">
    <title>BenefitCosmetics_BrandLogo</title>
    <defs>
        <polygon id="path-1" points="0 0 38.1527099 0 38.1527099 52.1246991 0 52.1246991"></polygon>
        <polygon id="path-3" points="0 0 29.3021874 0 29.3021874 40.6346071 0 40.6346071"></polygon>
        <polygon id="path-5" points="0 52.1246991 160 52.1246991 160 -9.357519e-15 0 -9.357519e-15"></polygon>
    </defs>
    <g id="BenefitCosmetics_BrandLogo" stroke="none" stroke-width="1" fill="none" fill-rule="evenodd">
        <g id="Group"></g>
        <g id="Group-40" transform="translate(27.000000, 81.000000)">
            <path d="M48.8689261,22.701747 C48.8689261,18.9122127 47.8614565,15.4157006 43.9501039,15.4157006 C39.8049921,15.4157006 38.5604708,18.9122127 38.5604708,22.701747 L38.5604708,24.3479392 L48.4376237,24.3479392 C48.6433977,24.3709859 48.8290882,24.2228286 48.8524641,24.0167253 C48.8554273,23.9890693 48.8554273,23.961084 48.8524641,23.9330988 L48.8689261,22.701747 Z M38.5604708,30.8767372 C38.5012079,35.0844044 39.0938371,39.8221454 44.6612589,39.8221454 C49.6360516,39.8221454 53.3103525,36.5067144 54.1400333,31.6471552 L55.08824,31.6471552 C54.1400333,37.0960512 50.1101549,40.7703521 44.6612589,40.7703521 C37.73079,40.7703521 32.8745231,35.4399819 32.8745231,27.6172768 C32.8745231,21.8720662 37.4838611,14.4674939 43.9501039,14.4674939 C50.9398358,14.4674939 54.5548738,22.2869066 54.5548738,24.7759491 C54.5920777,25.0334136 54.4136305,25.2721114 54.156166,25.3093154 C54.1113896,25.3159002 54.0662839,25.3159002 54.0215075,25.3093154 L38.5473013,25.3093154 L38.5604708,30.8767372 Z" id="Fill-1" fill="#231F20"></path>
            <path d="M60.5371031,16.7195177 L55.858625,16.7195177 L55.858625,15.771311 L60.5371031,15.771311 C63.3817232,15.771311 64.4484557,15.771311 65.5151882,14.4543573 L65.5151882,20.5123444 L65.633714,20.5123444 C67.1646727,17.6677243 70.1278186,14.4675268 74.4573039,14.4675268 C80.7984361,14.4675268 82.5730313,17.6677243 82.5730313,21.1642365 L82.5730313,39.1110233 L87.248217,39.1110233 L87.248217,40.05923 L72.9197605,40.05923 L72.9197605,39.1110233 L77.5982386,39.1110233 L77.5982386,19.7583884 C77.5982386,16.4989279 75.9981398,15.4321954 74.1050188,15.4321954 C69.1401033,15.4157335 66.5819207,20.3905262 65.5184806,22.3922958 L65.5184806,39.0978538 L70.0191699,39.0978538 L70.0191699,40.0460605 L55.8619174,40.0460605 L55.8619174,39.0978538 L60.5403955,39.0978538 L60.5371031,16.7195177 Z" id="Fill-3" fill="#231F20"></path>
            <path d="M103.107566,22.701747 C103.107566,18.9122127 102.103389,15.4157006 98.1920365,15.4157006 C94.0469247,15.4157006 92.8024034,18.9122127 92.8024034,22.701747 L92.8024034,24.3479392 L102.696018,24.3479392 C102.900146,24.3713151 103.084849,24.224804 103.107896,24.0206762 C103.111517,23.991374 103.111188,23.9620717 103.107566,23.9330988 L103.107566,22.701747 Z M92.8024034,30.8767372 C92.7434698,35.0844044 93.3357697,39.8221454 98.9031916,39.8221454 C103.881277,39.8221454 107.552285,36.5067144 108.382295,31.6471552 L109.330173,31.6471552 C108.382295,37.0960512 104.352088,40.7703521 98.9031916,40.7703521 C91.9891845,40.7703521 87.1164557,35.4399819 87.1164557,27.6172768 C87.1164557,21.8720662 91.7257938,14.4674939 98.1920365,14.4674939 C105.181768,14.4674939 108.796806,22.2869066 108.796806,24.7759491 C108.83434,25.0334136 108.655892,25.2721114 108.398099,25.3093154 C108.353651,25.3159002 108.308217,25.3159002 108.26344,25.3093154 L92.7892339,25.3093154 L92.8024034,30.8767372 Z" id="Fill-5" fill="#231F20"></path>
            <path d="M146.626203,16.7195177 L141.473951,16.7195177 L141.473951,15.771311 C147.634002,15.8898368 149.885664,13.2855608 150.893133,7.47779493 L151.604288,7.47779493 L151.604288,15.771311 L159.779279,15.771311 L159.779279,16.7195177 L151.604288,16.7195177 L151.604288,36.6219808 C151.604288,39.0517604 152.612087,39.8221783 154.505208,39.8221783 C157.468354,39.8221783 158.785308,37.0960841 159.114546,36.0919069 L159.999868,36.2664033 C159.585028,37.6887133 157.869696,40.770385 153.48424,40.770385 C149.339128,40.770385 146.613034,39.4073379 146.613034,35.5025701 L146.626203,16.7195177 Z" id="Fill-7" fill="#231F20"></path>
            <path d="M133.183365,16.7195177 L131.181925,16.7195177 L131.181925,15.771311 L133.183365,15.771311 C135.080108,15.771311 136.976521,15.6527852 138.16145,14.4543573 L138.16145,39.0978538 L142.889314,39.0978538 L142.889314,40.0460605 L128.435747,40.0460605 L128.435747,39.0978538 L133.173817,39.0978538 L133.183365,16.7195177 Z" id="Fill-9" fill="#231F20"></path>
            <g id="Group-13" transform="translate(99.997636, -0.000000)">
                <mask id="mask-2" fill="white">
                    <use xlink:href="#path-1"></use>
                </mask>
                <g id="Clip-12"></g>
                <path d="M23.1639093,17.2331625 C19.4336379,27.9498734 16.272949,38.9628989 13.5501471,43.6907628 C9.43137438,50.8879149 6.87319177,52.250962 3.29437003,52.1159742 C1.36174045,52.0468342 -0.060569572,50.4039344 0.00198572981,48.9154475 C0.0177891745,47.482931 1.19251189,46.3345474 2.6250283,46.3503508 C2.63424698,46.3503508 2.64346566,46.3506801 2.65235509,46.3506801 C4.18660618,46.4036875 5.17432147,47.3383954 5.13119124,48.6161697 C5.07554994,50.1570056 3.99894027,50.1207893 3.97589358,50.7562195 C3.97589358,51.1282589 4.30513201,51.2994629 4.80886681,51.3192172 C5.77353541,51.3521411 8.01894151,50.6344013 9.70464227,46.2785769 C11.8940778,40.6090911 14.7814989,27.7161142 18.0244974,17.9377328 L18.3142272,17.09159 C20.1744244,11.0961582 23.3416981,6.48682017 26.5122641,3.62573821 C29.3931004,1.06097084 31.8162953,-0.0781941272 34.3316769,0.00411548038 C36.3762475,0.0765479351 38.2196535,1.53836657 38.1508427,3.50392 C38.084995,4.94269194 37.245437,6.25964566 35.3193922,6.27939996 C33.4456962,6.31232381 32.5142807,4.57065251 32.5537893,3.40185608 C32.6031751,1.96966891 33.5217503,1.73590962 33.5415046,1.2585139 C33.5579666,0.833796325 33.1032883,0.817334403 32.7612096,0.804164866 C29.3535918,0.685639031 25.9262197,8.75856534 25.0998313,11.2838241 L23.1639093,17.2331625 Z" id="Fill-11" fill="#231F20" mask="url(#mask-2)"></path>
            </g>
            <polygon id="Fill-14" fill="#231F20" points="112.922361 16.7227442 112.922361 15.7679528 128.669506 15.7679528 128.666214 16.7227442"></polygon>
            <g id="Group-18" transform="translate(0.000000, 0.152141)">
                <mask id="mask-4" fill="white">
                    <use xlink:href="#path-3"></use>
                </mask>
                <g id="Clip-17"></g>
                <path d="M9.10999444,31.2842357 C9.10999444,36.9438443 13.518497,39.6834372 17.0314711,39.6834372 C22.8688684,39.6834372 23.5833158,36.2886598 23.5833158,27.4156841 C23.5833158,19.2571558 22.6877873,15.1482602 17.4496039,15.1482602 C12.5110274,15.1482602 9.10999444,20.0308661 9.10999444,24.3669362 L9.10999444,31.2842357 Z M4.10886269,2.48575015 L-3.2923843e-05,2.48575015 L-3.2923843e-05,1.49803486 L4.10886269,1.49803486 C6.0151532,1.49803486 7.92144371,1.36963187 9.10999444,0 L9.10999444,20.2646254 L9.21864313,20.2646254 C10.3018376,17.4693911 13.1695043,14.1934687 17.4496039,14.1934687 C24.5940778,14.1934687 29.3021874,21.578616 29.3021874,27.4156841 C29.3021874,34.3823693 24.4788444,40.6346071 17.0347635,40.6346071 C12.807342,40.6346071 10.0088154,37.4805029 9.23181266,35.5742124 L9.11328683,35.5742124 L9.11328683,39.9201597 L-3.2923843e-05,39.9201597 L-3.2923843e-05,38.9686606 L4.10886269,38.9686606 L4.10886269,2.48575015 Z" id="Fill-16" fill="#231F20" mask="url(#mask-4)"></path>
            </g>
            <path d="M7.04244295,47.0488302 C6.68686544,46.8002552 6.26741568,46.6583534 5.83413791,46.6409038 C5.24842274,46.5987612 4.73909089,47.0392823 4.69694837,47.6249974 C4.69628989,47.6394839 4.69530218,47.6536412 4.69497294,47.6677984 C4.69497294,49.103278 7.2630327,48.418462 7.2630327,50.3017059 C7.24722925,51.1343499 6.55945017,51.7967776 5.72680618,51.7809741 C5.71758751,51.7806449 5.70836883,51.7803157 5.69915015,51.7799864 C5.20134165,51.762866 4.71999506,51.5979176 4.31634875,51.3062123 L4.31634875,50.8153178 C4.91556269,51.2502418 5.25467827,51.3947775 5.67610346,51.3947775 C6.27729284,51.4201288 6.78563697,50.953598 6.81098833,50.3520793 C6.81131757,50.3408852 6.81164681,50.3296911 6.81197605,50.318497 C6.81197605,48.7872091 4.24391629,49.4558923 4.24391629,47.6845896 C4.27585242,46.8631397 4.96758236,46.2231002 5.78870301,46.2553656 C5.79067844,46.2553656 5.79265387,46.2553656 5.7946293,46.2556948 C6.23185793,46.2579995 6.66118485,46.3709282 7.04244295,46.5849332 L7.04244295,47.0488302 Z" id="Fill-19" fill="#231F20"></path>
            <path d="M12.8402988,46.963327 L11.6846719,49.5017553 L13.9893409,49.5017553 L12.8402988,46.963327 Z M15.4346976,51.7109451 L15.0001029,51.7109451 L14.1572525,49.8474556 L11.5233451,49.8474556 L10.6706175,51.7109451 L10.2261456,51.7109451 L12.7151882,46.2850958 L12.9456551,46.2850958 L15.4346976,51.7109451 Z" id="Fill-21" fill="#231F20"></path>
            <polygon id="Fill-23" fill="#231F20" points="23.5471325 51.7109122 23.2178941 51.7109122 19.095829 47.0028026 19.095829 51.7109122 18.6875733 51.7109122 18.6875733 46.3249007 19.0431508 46.3249007 23.1289997 51.0359734 23.1289997 46.3278639 23.5471325 46.3278639"></polygon>
            <polygon id="Fill-25" fill="#231F20" points="34.9651872 46.6704035 32.6111324 46.6704035 32.6111324 48.7314361 34.7380126 48.7314361 34.7380126 49.0606745 32.6111324 49.0606745 32.6111324 51.694582 32.1929996 51.694582 32.1929996 46.3247032 34.9651872 46.3247032"></polygon>
            <path d="M38.6887421,48.7808877 L39.5809782,48.7808877 C40.5291849,48.7808877 40.9868263,48.3693397 40.9868263,47.7240323 C40.9868263,47.078725 40.5522316,46.6704694 39.5645163,46.6704694 L38.6887421,46.6704694 L38.6887421,48.7808877 Z M39.6534107,46.324769 C40.9703644,46.324769 41.437883,46.9832459 41.437883,47.7141552 C41.437883,48.339379 41.1086446,48.7739737 40.4106591,49.0311089 C40.7092784,49.2477478 40.954561,49.5289174 41.1283989,49.854205 L42.3465811,51.7176945 L41.8560158,51.7176945 L40.9176863,50.2423771 C40.2592094,49.2220672 40.0616664,49.1364652 39.416359,49.1364652 L38.6887421,49.1364652 L38.6887421,51.7176945 L38.2706093,51.7176945 L38.2706093,46.324769 L39.6534107,46.324769 Z" id="Fill-27" fill="#231F20"></path>
            <path d="M47.410334,46.963327 L46.2579995,49.5017553 L48.5626685,49.5017553 L47.410334,46.963327 Z M50.0179023,51.7109451 L49.5833076,51.7109451 L48.7272877,49.8474556 L46.0933802,49.8474556 L45.2406527,51.7109451 L44.806058,51.7109451 L47.2951005,46.2850958 L47.522275,46.2850958 L50.0179023,51.7109451 Z" id="Fill-29" fill="#231F20"></path>
            <polygon id="Fill-31" fill="#231F20" points="58.1335638 51.7109122 57.8043254 51.7109122 53.7085993 47.0028026 53.7085993 51.7109122 53.2904665 51.7109122 53.2904665 46.3249007 53.646044 46.3249007 57.715431 51.0359734 57.715431 46.3278639 58.1335638 46.3278639"></polygon>
            <path d="M66.4699796,47.1610676 C65.8842645,46.8282075 65.2238122,46.649431 64.5505196,46.6408708 C63.2361998,46.6095932 62.1457621,47.6499866 62.1148137,48.9646357 C62.0838653,50.2789555 63.1242587,51.3690639 64.4385785,51.4003416 C64.494549,51.4016585 64.5505196,51.4010001 64.6064901,51.3980369 C65.2827458,51.3792703 65.9431981,51.1886413 66.5259502,50.8449164 L66.5259502,51.2765479 C65.938918,51.5985431 65.2824166,51.772381 64.6130749,51.7832459 C62.9668827,51.7832459 61.7454082,50.6081939 61.7454082,49.0242278 C61.7470543,47.4916229 62.9909171,46.2500648 64.523522,46.2517094 C64.5403132,46.2517094 64.5567751,46.2517094 64.5735663,46.2520402 C65.2307262,46.2645513 65.8776797,46.4183057 66.4699796,46.7030969 L66.4699796,47.1610676 Z" id="Fill-33" fill="#231F20"></path>
            <mask id="mask-6" fill="white">
                <use xlink:href="#path-5"></use>
            </mask>
            <g id="Clip-36"></g>
            <polygon id="Fill-35" fill="#231F20" mask="url(#mask-6)" points="69.9302426 51.7108463 70.3516678 51.7108463 70.3516678 46.3248349 69.9302426 46.3248349"></polygon>
            <path d="M76.7125543,47.0488302 C76.357306,46.7999259 75.9378562,46.6580242 75.5042492,46.6409038 C74.9201803,46.5987612 74.4128238,47.0379653 74.3706813,47.6220343 C74.3696936,47.6371792 74.3687059,47.6526535 74.3683766,47.6677984 C74.3683766,49.103278 76.9364364,48.418462 76.9364364,50.3017059 C76.920633,51.1343499 76.2328539,51.7967776 75.4005391,51.7809741 C75.3900035,51.7806449 75.3797971,51.7806449 75.3692615,51.7799864 C74.871453,51.7625368 74.3901064,51.5975883 73.9864601,51.3062123 L73.9864601,50.8153178 C74.5889664,51.2502418 74.928082,51.3947775 75.3462148,51.3947775 C75.9493796,51.4204581 76.4590407,50.9519518 76.4847213,50.348787 C76.4850505,50.3385806 76.4853798,50.3287034 76.4853798,50.318497 C76.4853798,48.7872091 73.91732,49.4558923 73.91732,47.6845896 C73.9492561,46.8631397 74.6409861,46.2234294 75.462436,46.2553656 C75.4630944,46.2553656 75.4640821,46.2553656 75.4647406,46.2556948 C75.9019693,46.2579995 76.3312962,46.3709282 76.7125543,46.5849332 L76.7125543,47.0488302 Z" id="Fill-37" fill="#231F20" mask="url(#mask-6)"></path>
            <path d="M84.9930325,47.1610676 C84.4073173,46.8282075 83.746865,46.649431 83.0735724,46.6408708 C81.7592526,46.6086055 80.667498,47.6480112 80.6355619,48.962331 C80.6036257,50.2766508 81.6427022,51.367747 82.957022,51.4000123 C83.0133218,51.4013293 83.0696216,51.4010001 83.1262506,51.3980369 C83.803494,51.3789411 84.464934,51.188312 85.049003,50.8449164 L85.049003,51.2765479 C84.4619709,51.5982139 83.8054695,51.7720518 83.1357985,51.7832459 C81.4896064,51.7832459 80.2651686,50.6081939 80.2651686,49.0242278 C80.268461,47.4896475 81.515287,46.2484186 83.0498673,46.2517045 C83.0656707,46.2517045 83.0808157,46.2517045 83.0962899,46.2520402 C83.7534498,46.2648805 84.4004033,46.4189641 84.9930325,46.7030969 L84.9930325,47.1610676 Z" id="Fill-38" fill="#231F20" mask="url(#mask-6)"></path>
            <path d="M91.1003395,46.6408379 C89.7856905,46.6477519 88.725872,47.719423 88.7330783,49.0344013 C88.7403585,50.3490504 89.8120295,51.4085396 91.1266786,51.4013333 C92.4373768,51.3943824 93.4955491,50.3286376 93.4939029,49.0179394 C93.5031216,47.7141552 92.4535095,46.6497273 91.1497253,46.6405087 C91.1335926,46.6405087 91.1168014,46.6405087 91.1003395,46.6408379 M91.0838776,51.783213 C89.557199,51.7305348 88.362722,50.4504558 88.4154001,48.9241064 C88.4680783,47.3974278 89.7484865,46.2029508 91.2748359,46.2556289 C92.7636521,46.3066609 93.9439719,47.5281355 93.9449596,49.0179394 C93.9383748,50.5525197 92.688915,51.7914439 91.1540054,51.7845587 C91.1309587,51.7845587 91.1072535,51.7842007 91.0838776,51.783213" id="Fill-39" fill="#231F20" mask="url(#mask-6)"></path>
        </g>
    </g>
</svg>