<?xml version="1.0" encoding="UTF-8"?>
<svg width="214px" height="214px" viewBox="0 0 214 214" version="1.1" xmlns="http://www.w3.org/2000/svg" xmlns:xlink="http://www.w3.org/1999/xlink">
    <title>Clinique_BrandLogo</title>
    <defs>
        <polygon id="path-1" points="0 0 28.9415809 0 28.9415809 34 0 34"></polygon>
    </defs>
    <g id="Clinique_BrandLogo" stroke="none" stroke-width="1" fill="none" fill-rule="evenodd">
        <g id="Group"></g>
        <g id="Group-18" transform="translate(21.000000, 90.000000)">
            <path d="M23.4191372,25.9379119 C22.9686065,27.1896893 21.8723536,28.1304905 19.6185431,28.4432942 C16.0099596,28.9430773 7.05602253,29.7586164 3.25441635,24.4964841 C-1.57606556,17.731488 -0.545310209,7.89876566 3.19108757,3.82570936 C6.60549179,0.130266946 10.6022894,-0.266044862 15.7536082,0.1947959 C18.8496335,0.471750231 20.0472414,0.609383881 23.0319353,0.854003443 L23.0319353,4.3888967 C20.7116152,2.01074468 17.3625639,1.69780035 13.3699593,2.13699087 C7.24918976,2.82544029 4.15648994,7.52115178 4.80120002,15.4763486 C5.31708374,21.5521925 7.82840226,25.7502297 13.3699593,26.7514828 C17.6210842,27.5671625 21.0334642,26.3771024 23.7419983,23.1197259 C23.9363222,24.0497019 23.7419983,25.0619208 23.4191372,25.9379119" id="Fill-1" fill="#010202"></path>
            <path d="M77.9690267,28.3389935 C77.9690267,28.3389935 66.7040231,13.7447655 60.4100392,6.79953813 L60.1603387,24.6377871 C60.1603387,26.8019673 62.3660019,28.3389935 62.3660019,28.3389935 L57.1701506,28.3389935 L57.1701506,0.718070883 L62.266382,0.718070883 L77.3846091,20.1729177 C77.3846091,20.1729177 77.610742,5.88348005 77.5971509,4.84708039 C77.5598476,2.02931609 75.5405561,0.718070883 75.5405561,0.718070883 L80.5934117,0.718070883 L80.5934117,28.3389935 L77.9690267,28.3389935 Z" id="Fill-3" fill="#010202"></path>
            <g id="Group-7" transform="translate(94.345560, 0.000000)">
                <mask id="mask-2" fill="white">
                    <use xlink:href="#path-1"></use>
                </mask>
                <g id="Clip-6"></g>
                <path d="M5.71621593,20.3619777 C4.29811402,15.4148985 4.49330545,11.9081225 5.7827256,7.77348951 C8.03754812,0.694424326 19.888849,-1.24566186 23.3033978,7.96032825 C24.7858406,11.9081225 24.9778511,16.0426148 23.6916119,20.3619777 C20.7920793,29.9474093 7.97205055,28.1304764 5.71621593,20.3619777 M19.8647031,28.5048568 C18.5773071,28.3191428 17.805072,28.3797353 16.77316,28.1304764 C21.732179,27.3783416 25.4695889,25.7502156 27.3382216,21.0523953 C28.2384156,18.797256 30.3020951,11.7799081 27.5967418,6.20595611 C25.4053926,1.69778629 21.4759722,-0.120130699 14.2598172,0.00611548905 C9.17182722,0.130252887 4.59784131,1.00736866 1.89364474,5.89301178 C-0.941691554,11.1561282 -0.0404854794,17.542667 1.05359865,20.3619777 C2.79456164,24.6237003 5.82277599,27.627741 9.81653729,28.1909284 C18.4476133,29.3205365 17.0305235,30.3219303 21.282805,32.576929 C24.4376769,34.2061796 26.1786399,34.0819017 28.1107459,33.8930947 L28.1107459,32.4527916 C26.8856666,32.2002992 26.8232054,32.7637677 24.9537052,31.5119904 C23.1504255,30.3219303 23.2147664,29.0075922 19.8647031,28.5048568" id="Fill-5" fill="#010202" mask="url(#mask-2)"></path>
            </g>
            <path d="M154.102578,0.718042766 L171.046929,0.718042766 L171.046929,3.41223201 C171.046929,3.41223201 169.368572,2.31538039 166.447785,2.41097884 C163.686188,2.50137561 158.338665,3.60624063 158.338665,3.60624063 L158.338665,12.5425869 C158.338665,12.5425869 161.857461,12.6059911 163.208186,12.6059911 C166.413229,12.6703795 170.299418,12.3575758 170.299418,12.3575758 L170.299418,14.7973044 C170.299418,14.7973044 166.347442,14.5497326 163.275129,14.6740105 C161.742659,14.7371336 158.338665,14.9227071 158.338665,14.9227071 L158.338665,25.6603812 C160.106811,25.8799764 162.470507,26.1316253 164.146117,26.2515451 C166.792768,26.4407738 169.2957,26.5050216 170.900608,25.315805 C171.835792,24.624825 171.931218,24.5482057 173,23.5465308 C172.530818,25.2986535 172.317264,26.3970516 171.463048,27.8022082 C171.058207,28.4683045 169.997956,28.3389654 168.811336,28.3389654 L154.102578,28.3433235 L154.102578,0.718042766 Z" id="Fill-8" fill="#010202"></path>
            <path d="M42.4923765,25.3125575 C40.8874692,26.5017741 38.3634271,26.6229592 35.7378854,26.248157 C34.0612633,26.0088797 33.8698311,25.9446319 32.2517664,25.4171534 L32.2517664,0.720418669 L28.0156786,0.718028708 L28.0156786,28.3402166 L40.4032499,28.3357178 C41.5897246,28.3357178 42.6499755,28.4650569 43.054817,27.7989607 C43.908888,26.3936635 44.1225865,25.295406 44.5919134,23.5434238 C43.5229873,24.5449582 43.427705,24.6217181 42.4923765,25.3125575" id="Fill-10" fill="#010202"></path>
            <path d="M52.5189556,0.718042766 L46.6600317,0.718042766 C46.6600317,0.718042766 47.3060431,5.2211515 47.4335681,9.28970904 C47.6928113,16.733876 47.3060431,28.3389654 47.3060431,28.3389654 L51.8729442,28.3389654 C51.8729442,28.3389654 51.486176,16.733876 51.7454192,9.28970904 C51.8729442,5.2211515 52.5189556,0.718042766 52.5189556,0.718042766" id="Fill-12" fill="#010202"></path>
            <path d="M91.2352341,0.718042766 L85.3763102,0.718042766 C85.3763102,0.718042766 86.0224662,5.2211515 86.1499913,9.28970904 C86.4090898,16.733876 86.0224662,28.3389654 86.0224662,28.3389654 L90.5892228,28.3389654 C90.5892228,28.3389654 90.2024546,16.733876 90.4616977,9.28970904 C90.5892228,5.2211515 91.2352341,0.718042766 91.2352341,0.718042766" id="Fill-14" fill="#010202"></path>
            <path d="M143.008547,28.0022198 C141.407399,28.5647043 135.588381,28.9998178 132.707789,28.0653429 C125.799025,25.8890724 127.20527,20.3533598 127.268165,15.1906217 C127.335109,10.1500529 127.654789,7.85681481 126.629962,3.00477174 C126.440265,2.13356057 126.310282,1.62000008 126.054653,0.71800059 L131.890732,0.71800059 C131.460154,7.93708939 131.522037,10.8767417 131.619922,18.7973544 C131.658527,21.9078187 132.133493,24.7080097 135.011916,25.9500867 C137.122586,26.8845615 141.217702,26.6960357 143.519804,25.5141296 C147.359292,23.5251195 146.207662,15.3290989 146.336633,6.30685465 C146.39736,2.14157397 145.798917,2.00197212 144.648155,0.71800059 L149.023624,0.71800059 C148.814263,7.29461157 148.956392,12.3905713 149.150282,19.7908754 C149.277951,25.2664172 146.719064,26.7591588 143.008547,28.0022198" id="Fill-16" fill="#010202"></path>
        </g>
    </g>
</svg>