<?xml version="1.0" encoding="UTF-8"?>
<svg width="214px" height="214px" viewBox="0 0 214 214" version="1.1" xmlns="http://www.w3.org/2000/svg" xmlns:xlink="http://www.w3.org/1999/xlink">
    <title>DrunkElephant_BrandLogo</title>
    <defs>
        <polygon id="path-1" points="0 0 79 0 79 57 0 57"></polygon>
    </defs>
    <g id="DrunkElephant_BrandLogo" stroke="none" stroke-width="1" fill="none" fill-rule="evenodd">
        <g id="Guide-Copy"></g>
        <g id="DE_Logo" transform="translate(18.000000, 56.000000)">
            <path d="M61,19.5349254 C61.2531298,19.8539004 61.4277144,20.0248607 61.6722757,19.9970675 C61.9543245,19.9889881 63.2860231,19.658702 63.2788826,19.6393114 C63.255676,19.6945745 64.6591364,19.1658581 64.8587127,18.892451 C65.0618592,18.7185821 65.0261568,18.4758767 64.8765639,18.1116571 C64.4524196,18.0108261 64.2353492,17.9471603 64.0754026,18.0593025 C63.961869,18.2189516 62.9500637,18.6206597 62.8979382,18.600946 C62.9015085,18.6206597 61.7226161,18.9021463 61.4801969,18.92186 C61.2499166,18.9606412 61.1488789,19.1626264 61,19.5349254" id="Fill-1" fill="#1B1A19"></path>
            <path d="M145,41.7015292 C145.451477,41.1242284 146.320571,39.9342031 146.781675,39.2843013 C146.995463,39.0177469 147.124267,38.7280443 147.124267,38.4832351 C147.124267,38.1581089 146.891889,37.8224607 146.400575,37.8224607 C146.076574,37.8224607 145.795729,38.0679714 145.630408,38.2535073 C145.578621,38.3099747 145.499945,38.3099747 145.448158,38.2535073 L145.123824,37.90383 C145.077349,37.8617424 145.062078,37.7716049 145.117185,37.7112795 C145.117185,37.7112795 145.647339,37 146.459334,37 C147.445281,37 148,37.663931 148,38.4478114 C148,38.913931 147.796171,39.2176627 147.538896,39.6199495 C147.238132,40.061518 146.719929,40.7429854 146.353768,41.233656 L147.837667,41.233656 C147.903065,41.233656 147.968463,41.2974888 147.968463,41.3714927 L147.968463,41.8674242 C147.968463,41.9400253 147.903065,42 147.837667,42 L145.130796,42 C145.060418,42 145,41.9400253 145,41.8674242 L145,41.7015292" id="Fill-2" fill="#1B1A19"></path>
            <path d="M152.954201,40.0006214 C152.954201,38.7308569 152.612002,38.017883 152.00096,38.017883 C151.380701,38.017883 151.032741,38.7308569 151.032741,40.0006214 C151.032741,41.274943 151.380701,41.9883311 152.00096,41.9883311 C152.612002,41.9883311 152.954201,41.274943 152.954201,40.0006214 Z M150,40.0006214 C150,38.1239384 150.73471,37 152.00096,37 C153.265675,37 154,38.1239384 154,40.0006214 C154,41.8756473 153.265675,43 152.00096,43 C150.73471,43 150,41.8756473 150,40.0006214 L150,40.0006214 Z" id="Fill-3" fill="#1B1A19"></path>
            <path d="M155.970691,38.3411681 L155.219761,38.4789886 C155.14986,38.4950142 155.061563,38.4522792 155.057067,38.3874644 L155.001472,38.0220798 C154.99575,37.9665242 155.005969,37.9198718 155.045212,37.889245 L156.261334,37 L156.852021,37 C156.939909,37 157,37.0665954 157,37.136396 L157,41.8653846 C157,41.9391026 156.939909,42 156.852021,42 L156.133794,42 C156.028738,42 155.970691,41.9391026 155.970691,41.8653846 L155.970691,38.3411681" id="Fill-4" fill="#1B1A19"></path>
            <path d="M159,41.7015292 C159.453689,41.1242284 160.321848,39.9342031 160.783514,39.2843013 C160.994571,39.0177469 161.130179,38.7280443 161.130179,38.4832351 C161.130179,38.1581089 160.896189,37.8224607 160.40195,37.8224607 C160.07423,37.8224607 159.795037,38.0679714 159.636162,38.2535073 C159.582318,38.3099747 159.503545,38.3099747 159.452027,38.2535073 L159.11899,37.90383 C159.077111,37.8617424 159.061821,37.7716049 159.11201,37.7112795 C159.11201,37.7112795 159.645801,37 160.46776,37 C161.454243,37 162,37.663931 162,38.4478114 C162,38.913931 161.804232,39.2176627 161.533348,39.6199495 C161.248837,40.061518 160.721693,40.7429854 160.355418,41.233656 L161.840793,41.233656 C161.909595,41.233656 161.97341,41.2974888 161.97341,41.3714927 L161.97341,41.8674242 C161.97341,41.9400253 161.909595,42 161.840793,42 L159.133946,42 C159.058498,42 159,41.9400253 159,41.8674242 L159,41.7015292" id="Fill-5" fill="#1B1A19"></path>
            <g id="Group-9" transform="translate(33.000000, 0.000000)">
                <mask id="mask-2" fill="white">
                    <use xlink:href="#path-1"></use>
                </mask>
                <g id="Clip-7"></g>
                <path d="M34.1873148,3.59536062 C30.8468854,3.10731476 28.2679509,3.31357452 24.5542699,5.27074192 C23.5752051,5.81322809 21.589783,7.18152006 20.0921636,9.55695772 C18.5422659,11.8886898 17.5705046,15.0592626 17.1603506,18.0876006 C16.4173069,24.2056178 17.1119163,29.6619168 16.9746858,29.6500319 C16.8547533,29.6343132 17.5724266,35.1504199 15.859928,40.79726 C14.3081083,46.5445464 10.0028369,51.589476 8.32109024,52.8381527 C6.85422276,54.1198002 5.59454647,54.9804938 4.29796785,55.6330107 C3.0148432,56.2586909 1.70481061,56.8391319 0,56.6401564 C1.61409239,57.2597025 3.21819039,56.9878843 4.66968191,56.5109565 C6.14769696,56.0167766 7.60111047,55.1775524 9.18022253,53.8150111 C10.9780578,52.4773898 15.4847544,47.1955298 17.1138383,41.1699078 C18.9078296,35.2044769 18.1490255,29.5553365 18.2731864,29.6132272 C18.404651,29.6132272 17.7369495,24.1051716 18.4569293,18.2689405 C18.8517073,15.3586843 19.7746498,12.3882371 21.187317,10.2631482 C22.5630819,8.09435367 24.3047948,6.89973395 25.2104394,6.39175221 C28.6142946,4.58180366 30.8334314,3.93695438 34.1873148,3.59536062" id="Fill-6" fill="#1B1A19" mask="url(#mask-2)"></path>
                <path d="M41.1107294,2.8006088 C43.3786849,3.09926373 44.9558749,3.13223462 47.6205304,2.75421952 C49.0739439,2.57249624 53.3792154,1.76394265 57.3112351,1.43001654 C61.2663189,1.03666615 64.7747307,1.6581291 64.7612767,1.69455043 C64.7301404,1.69838425 68.3488748,2.19831497 71.5047925,4.49515923 C74.7618072,6.66203684 76.8844598,10.477459 77.1593052,11.8039623 C77.9377137,14.2679613 78.2909766,15.6906935 78.58312,17.942682 C79.1255073,15.7409166 79.2123815,14.0444493 78.3978396,11.3983436 C78.0745598,9.89893486 75.7758524,5.76300499 72.2593682,3.43165631 C68.842059,0.953472153 64.9550139,0.424787755 64.9992198,0.422870842 C65.0145958,0.378398478 61.2663189,-0.276035364 57.2089849,0.134950622 C53.1585702,0.471177031 48.8644463,1.28701489 47.4267932,1.47257199 C44.7832797,1.86630577 43.3321726,2.2696241 41.1107294,2.8006088" id="Fill-8" fill="#1B1A19" mask="url(#mask-2)"></path>
            </g>
            <path d="M79.9750299,7 C81.6333223,8.78217633 82.9343053,9.77070943 85.2919201,11.3895894 C86.5321095,12.2677356 90.5852774,14.7240329 92.7887511,18.1673407 C93.9128443,19.865014 94.5580408,21.6951515 94.650604,23.0498644 C94.759248,24.4083837 94.4278248,25.2343817 94.4391991,25.2210591 C94.4391991,25.2111624 94.2776058,26.0619023 93.3735462,27.079745 C92.4788998,28.1063425 90.7806013,29.1161917 88.8359907,29.9730218 C84.9644192,31.6459533 80.5119747,33.4353618 79.2207971,34.4509207 C76.7608137,36.0549555 75.6884931,37.2810106 74,39 C76.1956294,37.9406671 77.5879988,37.0415854 79.9456137,35.5296665 C81.1379526,34.592901 85.4048786,32.8682019 89.4007828,31.1454061 C91.3795163,30.2680211 93.2825519,29.1759528 94.3740911,27.9262978 C95.4762202,26.6865395 95.7150802,25.5621164 95.7150802,25.5826712 C95.7009604,25.5826712 96.1045514,24.5537898 95.9739433,22.9463292 C95.8652992,21.3461008 95.124794,19.3035638 93.915982,17.4776134 C91.4838459,13.7084741 87.2726147,11.2023124 86.0465452,10.3283532 C83.6693195,8.72279583 82.1110423,8.10577152 79.9750299,7" id="Fill-10" fill="#1B1A19"></path>
            <path d="M59.3519751,20 C59.8382774,19.7005452 60.1033954,19.5747028 60.2575427,19.2356771 C60.3567726,19.0617081 60.6616583,18.5337407 61.1362197,18.1964975 C61.591844,17.8432121 62.1258676,17.6510619 62.1224589,17.6492794 C62.0709502,17.5451832 64.3623278,17.1266594 64.8675671,17.2346771 C65.3099355,17.2346771 65.561419,17.0464483 66,16.7052837 C65.6587552,16.2817689 65.3822749,16.0447005 64.8868829,16.0265193 C64.3452845,15.8778614 61.6191133,16.39656 61.6376716,16.5327406 C61.6456251,16.5420095 60.9650292,16.7680266 60.3260946,17.2525018 C59.6629207,17.7191522 59.2144924,18.4802666 59.0925381,18.7315948 C58.8925633,19.2103661 59.0338334,19.5657905 59.3519751,20" id="Fill-11" fill="#1B1A19"></path>
            <path d="M66,33 C63.7903405,33.9268382 62.7500735,35.4312324 61.5677684,37.8044419 C60.897123,39.1168264 59.3819164,43.2059081 58.5062844,47.0682427 C57.5313871,50.94661 57.4155777,54.5554765 57.3344708,54.5268468 C57.3954019,54.50547 56.7231424,58.100976 57.1335193,62.1037869 C57.352629,65.9890253 57.9845368,70.3262309 58.5244426,71.7172516 C59.3573019,74.2981217 60.4363065,75.7181538 62.3598725,77 C61.0718459,75.1283824 60.6150646,73.7908038 59.8370837,71.3679695 C59.3435823,70.0628378 58.7257977,65.9275669 58.498214,61.9976662 C58.0959075,58.1738863 58.7459735,54.6726673 58.6914987,54.6669414 C58.780676,54.664651 58.8924502,51.10999 59.8411189,47.3591203 C60.7123122,43.558244 62.1936234,39.5707023 62.8190749,38.3174858 C63.9727302,36.0095519 64.3625277,34.5780679 66,33" id="Fill-12" fill="#1B1A19"></path>
            <path d="M71,44 C71.4875237,45.6999065 71.7680113,46.7843565 72.7374087,48.6416329 C73.2899087,49.5613119 74.6491636,52.5260206 75.1225621,55.4673574 C75.6710263,58.384933 75.6221932,61.1244936 75.6363185,61.1205983 C75.6363185,61.1205983 75.6589189,63.83445 75.3622882,66.8427859 C75.1205442,69.85268 74.6164737,73.0881116 74.3872407,74.1507479 C73.996576,76.1194297 73.9420928,77.2552976 73.8020508,79 C74.7690267,77.5232939 75.3033656,76.4154721 75.7319668,74.3977096 C75.9757286,73.3058585 76.4858528,69.9878467 76.7316326,66.9483484 C77.021806,63.9107978 76.9996092,61.1069648 76.9996092,61.1069648 C76.9915376,61.1128077 77.0423886,58.298847 76.4773776,55.2359769 C75.9797644,52.1536304 74.541408,48.9961047 73.9420928,48.0199439 C72.9973137,46.2608289 72.2353561,45.2663602 71,44" id="Fill-13" fill="#1B1A19"></path>
            <path d="M104.24379,38 C104.955685,40.2183268 105.620713,42.1812263 106.503512,44.3591008 C106.96693,45.5306763 107.819427,48.1912816 108.360015,51.5700114 C108.942217,54.9348718 108.403246,58.0612563 108.394761,58.0512396 C108.419407,58.0512396 107.959624,61.1545085 106.792795,64.4396201 C105.663944,67.7386011 104.111674,71.2645002 103.651891,72.4730607 C103.021609,74.0807505 102.297593,74.9572169 102.059622,76.2139349 C101.925485,77.6663649 102.032956,77.3812725 102.230121,78 C103.377153,76.3167993 104.050665,75.1163292 104.924979,72.940381 C105.392842,71.7530098 106.946729,68.2197908 108.097801,64.8472252 C109.298165,61.4800532 109.778149,58.2300002 109.749463,58.2261476 C109.753907,58.2396317 110.329241,54.96184 109.721181,51.3681351 C109.141402,47.7898407 107.753975,45.0941768 107.278839,43.8956331 C106.359274,41.6981103 105.437689,39.6543062 104.24379,38" id="Fill-14" fill="#1B1A19"></path>
            <path d="M113,21.8858658 C115.083889,21.8467448 116.484908,21.9869609 118.616229,22.6400115 C119.701294,22.9855164 122.945512,25.4090858 124.577421,28.5658846 C126.343787,31.6545121 127.105449,34.8930391 127.147393,34.8697989 C127.178753,34.8601155 127.999216,38.0304711 128.966288,41.5850654 C129.870247,45.1667733 131.719326,48.8697177 132.53822,49.9713049 C133.909839,52.0482074 135.093689,53.0990535 137,54 C135.616621,52.430122 134.971384,51.2704342 133.650725,49.2694498 C132.897295,48.2244138 131.145041,44.7457376 130.256762,41.2302644 C129.297922,37.7442289 128.445708,34.4913704 128.417875,34.4995045 C128.378283,34.5262307 127.614661,31.217983 125.742062,27.9205807 C123.958056,24.521696 120.564093,21.9149161 119.091729,21.4175751 C116.496668,20.6359284 114.912191,21.0430199 113,21.8858658" id="Fill-15" fill="#1B1A19"></path>
            <path d="M114,39 C114.166309,40.5862966 114.158885,41.5606189 114.278419,43.332965 C114.386817,44.285835 114.229789,47.2052916 114.183386,50.0170968 C114.183386,52.828902 114.682313,55.3419359 114.682313,55.3419359 C114.663381,55.3321849 115.095116,57.8651108 116.121185,60.476435 C117.133889,63.0998505 118.797352,65.6308262 119.452937,66.4120783 C120.604108,67.8786323 121.57969,68.4718845 123,69 C122.030358,67.7690307 121.488368,66.952285 120.430375,65.581291 C119.843838,64.8686862 118.238657,62.4360008 117.284978,59.971722 C116.31348,57.5000325 115.896593,55.0887993 115.911813,55.0887993 C115.911813,55.0887993 115.441099,52.6916076 115.44444,50.009296 C115.491214,47.3367354 115.656039,44.2780342 115.526852,43.2452057 C115.386529,41.3601378 114.913958,40.2625626 114,39" id="Fill-16" fill="#1B1A19"></path>
            <path d="M16,37.167243 C16,37.0792641 16.0700228,37 16.1683158,37 L19.8290747,37 C19.9299772,37 20,37.0792641 20,37.167243 L20,37.8694149 C20,37.9528289 19.9299772,38.027943 19.8290747,38.027943 L17.1669023,38.027943 L17.1669023,39.4447365 L19.3889312,39.4447365 C19.4789605,39.4447365 19.5598565,39.5111357 19.5598565,39.6053396 L19.5598565,40.3133213 C19.5598565,40.4054503 19.4789605,40.4743395 19.3889312,40.4743395 L17.1669023,40.4743395 L17.1669023,41.9766219 L19.8290747,41.9766219 C19.9299772,41.9766219 20,42.053396 20,42.1393 L20,42.8431318 C20,42.9290358 19.9299772,43 19.8290747,43 L16.1683158,43 C16.0700228,43 16,42.9290358 16,42.8431318 L16,37.167243" id="Fill-17" fill="#1B1A19"></path>
            <path d="M21.0395959,42.1011689 L21.3528459,41.5876663 C21.4293713,41.4639258 21.573172,41.4639258 21.6534817,41.5247884 C21.6959491,41.5493753 22.398554,42.0378879 22.9636653,42.0378879 C23.4123064,42.0378879 23.7554097,41.7561467 23.7554097,41.3966143 C23.7554097,40.9729948 23.3849759,40.6807739 22.6504153,40.3966143 C21.8376474,40.0818218 21.0248795,39.5828295 21.0248795,38.6029827 C21.0248795,37.8585248 21.5899908,37 22.974177,37 C23.8588452,37 24.5387447,37.4340992 24.7077736,37.5598549 C24.8032202,37.6086256 24.8242437,37.7424426 24.7649574,37.8359532 L24.4285817,38.3087465 C24.3625679,38.4062878 24.2376884,38.4748085 24.1279459,38.4062878 C24.0644549,38.3635631 23.3954876,37.9516324 22.9233002,37.9516324 C22.4242026,37.9516324 22.1614091,38.2640064 22.1614091,38.5360742 C22.1614091,38.923418 22.474659,39.1914551 23.181889,39.4671503 C24.0282945,39.7875857 25,40.2809351 25,41.350262 C25,42.2067715 24.2296995,43 23.0040304,43 C21.9036612,43 21.2641268,42.5126965 21.0862681,42.3466344 C21.0034355,42.2732769 20.9655933,42.2329706 21.0395959,42.1011689" id="Fill-18" fill="#1B1A19"></path>
            <path d="M27.4516162,38.027943 L26.162333,38.027943 C26.0677067,38.027943 26,37.9528289 26,37.8694149 L26,37.167243 C26,37.0792641 26.0677067,37 26.162333,37 L29.8417457,37 C29.9380035,37 30,37.0792641 30,37.167243 L30,37.8694149 C30,37.9528289 29.9380035,38.027943 29.8417457,38.027943 L28.554094,38.027943 L28.554094,42.8431318 C28.554094,42.9290358 28.4786377,43 28.3921689,43 L27.6139492,43 C27.5274804,43 27.4516162,42.9290358 27.4516162,42.8431318 L27.4516162,38.027943" id="Fill-19" fill="#1B1A19"></path>
            <path d="M32.2371652,40.1487531 C32.7886161,40.1487531 33.1877232,39.64489 33.1877232,38.99511 C33.1877232,38.3488509 32.7886161,37.8391198 32.2371652,37.8391198 L31.7684152,37.8391198 L31.7684152,40.1487531 L32.2371652,40.1487531 Z M31,37.1142298 C31,37.0532029 31.0421875,37 31.0910714,37 L32.2877232,37 C33.2299107,37 34,37.9001467 34,38.99511 C34,40.1018093 33.2299107,41 32.2877232,41 L31.0910714,41 C31.0421875,41 31,40.9467971 31,40.889291 L31,37.1142298 L31,37.1142298 Z" id="Fill-20" fill="#1B1A19"></path>
            <polygon id="Fill-21" fill="#1B1A19" points="30 43 33 43 33 42 30 42"></polygon>
            <path d="M167.849659,96.3376897 L168.488372,96.3376897 L168.488372,92.5687184 L168.335178,92.5687184 C167.830293,92.5687184 167.723783,92.772344 167.491052,94.0118044 L167,94.0118044 L167,92 L171,92 L171,94.0118044 L170.508948,94.0118044 C170.281404,92.772344 170.174894,92.5687184 169.668626,92.5687184 L169.513703,92.5687184 L169.513703,96.3376897 L170.155874,96.3376897 L170.155874,97 L167.849659,97 L167.849659,96.3376897" id="Fill-22" fill="#1B1A19"></path>
            <g id="Group-26" transform="translate(0.000000, 92.000000)" fill="#1B1A19">
                <polyline id="Fill-23" points="171.718954 3.80073059 172.315373 3.80073059 172.315373 0.579954031 171.718954 0.579954031 171.718954 0 173.918128 0 174.90293 2.7036201 174.924464 2.7036201 175.843895 0 178 0 178 0.579954031 177.3882 0.579954031 177.3882 3.80073059 178 3.80073059 178 4.38105401 175.685081 4.38105401 175.685081 3.80073059 176.258427 3.80073059 176.258427 0.71736989 176.19767 0.71736989 174.852556 4.39065835 174.391879 4.39065835 172.998313 0.71736989 172.932172 0.71736989 172.932172 3.80073059 173.507057 3.80073059 173.507057 4.38105401 171.718954 4.38105401 171.718954 3.80073059"></polyline>
                <path d="M4.16570136,8.01481694 C6.37256558,8.01481694 7.28046006,7.09575603 7.28046006,4.5151453 C7.28046006,2.19385158 6.3494933,1.20829913 4.05572346,1.20829913 L3.20781693,1.20829913 L3.20781693,8.01481694 L4.16570136,8.01481694 Z M0,8.00336562 L1.41510025,8.00336562 L1.41510025,1.22011985 L0,1.22011985 L0,0.215728123 L4.01303973,0.215728123 C7.56078835,0.215728123 9.30736045,1.95263504 9.30736045,4.5151453 C9.30736045,7.0122722 7.68114878,9 4.11340418,9 L0,9 L0,8.00336562 L0,8.00336562 Z" id="Fill-25"></path>
            </g>
            <path d="M17.7342226,96.0290633 C19.0975513,96.0290633 19.5765479,95.493663 19.5765479,94.4351236 C19.5765479,93.4958511 19.1716106,92.9983487 17.862831,92.9983487 L16.321521,92.9983487 L16.321521,96.0290633 L17.7342226,96.0290633 Z M16.321521,99.8329687 L17.7863826,99.8329687 L17.7863826,100.835404 L13,100.835404 L13,99.8329687 L14.4672506,99.8329687 L14.4672506,93.0102382 L13,93.0102382 L13,92 L17.8907028,92 C20.7670715,92 21.6167629,93.1558849 21.6167629,94.2723857 C21.6167629,95.2525286 20.9816843,96.1761962 18.997611,96.4344218 L18.997611,96.541056 C20.5946645,96.7844198 21.0979494,97.4803286 21.1720088,98.4600999 L21.2301413,99.2533543 C21.2723472,99.7356232 21.4005574,99.8927878 21.6593669,99.8927878 C21.8879156,99.8927878 22.063906,99.7096148 22.2805097,99.2269744 L23,99.4944887 C22.709337,100.381002 22.1618555,101 21.1720088,101 C20.0336452,101 19.29783,100.476489 19.271949,99.1563803 L19.2540315,98.3386038 C19.2436791,97.397845 19.0135377,96.9694505 17.7788174,96.9694505 L16.321521,96.9694505 L16.321521,99.8329687 L16.321521,99.8329687 Z" id="Fill-27" fill="#1B1A19"></path>
            <path d="M26.282328,97.9684716 L26.282328,93.0045979 L25,93.0045979 L25,92 L29.4023897,92 L29.4023897,93.0045979 L28.079206,93.0045979 L28.079206,97.5960425 C28.079206,99.2645839 28.9017152,99.8823433 30.4754288,99.8823433 C31.1853922,99.8823433 31.6725766,99.6665709 32.048757,99.3092902 C32.4970129,98.8814401 32.6176527,98.2788292 32.6176527,97.3008334 L32.6176527,93.0045979 L31.2709578,93.0045979 L31.2709578,92 L35,92 L35,93.0045979 L33.7619965,93.0045979 L33.7619965,97.9459337 C33.7619965,99.5716162 32.518597,101 30.0603199,101 C27.5496242,101 26.282328,99.8006897 26.282328,97.9684716" id="Fill-28" fill="#1B1A19"></path>
            <polyline id="Fill-29" fill="#1B1A19" points="40.4953991 93.9206978 40.376338 93.9206978 40.376338 99.8245701 41.703662 99.8245701 41.703662 100.825931 38 100.825931 38 99.8245701 39.2758685 99.8245701 39.2758685 93.009155 38 93.009155 38 92 41.3220657 92 45.5038498 98.3318075 45.6270423 98.3318075 45.6270423 93.009155 44.2959624 93.009155 44.2959624 92 48 92 48 93.009155 46.7256338 93.009155 46.7256338 101 45.1789671 101 40.4953991 93.9206978"></polyline>
            <polyline id="Fill-30" fill="#1B1A19" points="54.2588047 99.9906224 55.5338701 99.9906224 55.5338701 101 51 101 51 99.9788898 52.4361099 99.9788898 52.4361099 93.029058 51 93.029058 51 92 55.5475511 92 55.5475511 93.016947 54.2588047 93.016947 54.2588047 96.6392767 57.9167025 93.016947 56.7182504 93.016947 56.7182504 92 60.5336747 92 60.5336747 93.029058 59.374702 93.029058 56.6490638 95.6386039 59.9098229 99.9788898 61 99.9788898 61 101 56.6353829 101 56.6353829 99.9906224 57.7513583 99.9906224 55.4353672 96.7876367 54.2588047 97.8942809 54.2588047 99.9906224"></polyline>
            <path d="M69,99.9788898 L70.3398085,99.9788898 L70.3398085,93.029058 L69,93.029058 L69,92 L76.8848999,92 L76.8848999,95.0557611 L76.0443426,95.0557611 C75.6238824,93.3851976 75.4644851,93.016947 74.419144,93.016947 L72.0300005,93.016947 L72.0300005,95.9436501 L72.8563972,95.9436501 C73.7191032,95.9436501 73.8251259,95.8047519 74.0393501,94.6118167 L74.878092,94.6118167 L74.878092,98.2261985 L74.0393501,98.2261985 C73.8541733,97.0067704 73.7191032,96.8735492 72.8563972,96.8735492 L72.0300005,96.8735492 L72.0300005,99.9906224 L74.3646803,99.9906224 C75.6002814,99.9906224 75.7589525,99.5368377 76.1667045,97.6509251 L77,97.6509251 L77,101 L69,101 L69,99.9788898" id="Fill-31" fill="#1B1A19"></path>
            <path d="M85.7971635,92 L85.7971635,93.016947 L84.2863545,93.016947 L84.2863545,99.9906224 L86.1087802,99.9906224 C87.2488797,99.9906224 87.46319,99.742725 88.1435466,97.498402 L89,97.498402 L89,101 L81,101 L81,99.9788898 L82.4517162,99.9788898 L82.4517162,93.029058 L81,93.029058 L81,92 L85.7971635,92" id="Fill-32" fill="#1B1A19"></path>
            <path d="M92,99.9788898 L93.3388377,99.9788898 L93.3388377,93.029058 L92,93.029058 L92,92 L99.8813229,92 L99.8813229,95.0557611 L99.0407839,95.0557611 C98.622692,93.3851976 98.46373,93.016947 97.4188631,93.016947 L95.0289888,93.016947 L95.0289888,95.9436501 L95.8528331,95.9436501 C96.7191399,95.9436501 96.822937,95.8047519 97.036701,94.6118167 L97.8736107,94.6118167 L97.8736107,98.2261985 L97.036701,98.2261985 C96.8519711,97.0067704 96.7191399,96.8735492 95.8528331,96.8735492 L95.0289888,96.8735492 L95.0289888,99.9906224 L97.3636982,99.9906224 C98.5936579,99.9906224 98.752257,99.5368377 99.1612757,97.6509251 L100,97.6509251 L100,101 L92,101 L92,99.9788898" id="Fill-33" fill="#1B1A19"></path>
            <path d="M108.113898,96.4333894 C109.697153,96.4333894 110.063738,95.7491169 110.063738,94.6708579 C110.063738,93.6989487 109.641712,93.016947 108.113898,93.016947 L107.147275,93.016947 L107.147275,96.4333894 L108.113898,96.4333894 Z M104,99.9788898 L105.391288,99.9788898 L105.391288,93.029058 L104,93.029058 L104,92 L108.157269,92 C110.963228,92 112,93.2058032 112,94.6595038 C112,96.0238856 111.075618,97.4068124 108.250424,97.4068124 L107.147275,97.4068124 L107.147275,99.9788898 L108.673581,99.9788898 L108.673581,101 L104,101 L104,99.9788898 L104,99.9788898 Z" id="Fill-34" fill="#1B1A19"></path>
            <polyline id="Fill-35" fill="#1B1A19" points="116 99.9788898 117.367153 99.9788898 117.367153 93.029058 116 93.029058 116 92 120.351384 92 120.351384 93.029058 119.10659 93.029058 119.10659 95.8600084 122.895641 95.8600084 122.895641 93.029058 121.660146 93.029058 121.660146 92 126 92 126 93.029058 124.627269 93.029058 124.627269 99.9788898 126 99.9788898 126 101 121.660146 101 121.660146 99.9788898 122.895641 99.9788898 122.895641 96.8160219 119.10659 96.8160219 119.10659 99.9788898 120.351384 99.9788898 120.351384 101 116 101 116 99.9788898"></polyline>
            <path d="M132.251364,97.0748004 L134.816491,97.0748004 L133.593868,93.5514906 L133.53777,93.5514906 L132.251364,97.0748004 Z M135.137324,97.9843208 L131.912856,97.9843208 L131.19127,99.9847389 L132.344348,99.9847389 L132.344348,101 L129,101 L129,99.9847389 L129.998233,99.9847389 L133.067855,92 L134.843003,92 L137.804657,99.9847389 L139,99.9847389 L139,101 L134.483747,101 L134.483747,99.9847389 L135.845078,99.9847389 L135.137324,97.9843208 L135.137324,97.9843208 Z" id="Fill-36" fill="#1B1A19"></path>
            <polyline id="Fill-37" fill="#1B1A19" points="144.496153 93.9206978 144.373409 93.9206978 144.373409 99.8245701 145.701438 99.8245701 145.701438 100.825931 142 100.825931 142 99.8245701 143.277354 99.8245701 143.277354 93.009155 142 93.009155 142 92 145.322323 92 149.499718 98.3318075 149.622837 98.3318075 149.622837 93.009155 148.292557 93.009155 148.292557 92 152 92 152 93.009155 150.720393 93.009155 150.720393 101 149.174656 101 144.496153 93.9206978"></polyline>
            <path d="M156.939177,99.9788898 L158.561969,99.9788898 L158.561969,92.8761564 L158.036413,92.8761564 C156.798382,92.8761564 156.533783,93.2610597 155.890088,95.3797309 L155,95.3797309 L155,92 L164,92 L164,95.3797309 L163.109912,95.3797309 C162.466217,93.2610597 162.203641,92.8761564 160.963183,92.8761564 L160.435604,92.8761564 L160.435604,99.9788898 L162.054754,99.9788898 L162.054754,101 L156.939177,101 L156.939177,99.9788898" id="Fill-38" fill="#1B1A19"></path>
        </g>
    </g>
</svg>