<?xml version="1.0" encoding="UTF-8"?>
<svg width="214px" height="214px" viewBox="0 0 214 214" version="1.1" xmlns="http://www.w3.org/2000/svg" xmlns:xlink="http://www.w3.org/1999/xlink">
    <title>Peach&amp;Lilly_BrandLogo</title>
    <defs>
        <polygon id="path-1" points="1.33994052e-14 0 21.6309155 0 21.6309155 23.3676852 1.33994052e-14 23.3676852"></polygon>
    </defs>
    <g id="Peach&amp;Lilly_BrandLogo" stroke="none" stroke-width="1" fill="none" fill-rule="evenodd">
        <g id="Group"></g>
        <g id="Group-22" transform="translate(27.000000, 95.000000)">
            <path d="M2.92345934,0.205693486 L1.04473245,0.205693486 C0.458720519,0.205693486 -3.34985131e-15,0.664414005 -3.34985131e-15,1.25042593 L-3.34985131e-15,17.0991491 C-3.34985131e-15,17.6851611 0.458720519,18.1438816 1.04473245,18.1438816 C1.63074437,18.1438816 2.09040779,17.6851611 2.09040779,17.0991491 L2.09040779,2.29515838 L3.02623536,2.29515838 C5.82900359,2.29515838 7.24995286,3.40023638 7.24995286,5.58069105 C7.24995286,8.19865101 5.85587622,8.62719875 4.6414219,8.70828809 C4.61124912,8.71064534 4.58107634,8.71394549 4.55090356,8.71865999 C4.00732211,8.80823542 3.63063383,9.28958552 3.67589299,9.83835293 C3.72209506,10.4050354 4.21853155,10.8307545 4.78804274,10.7935099 C7.72375977,10.5969154 9.34036065,8.75967611 9.34036065,5.62076427 C9.34036065,2.17965321 7.00149889,0.205693486 2.92345934,0.205693486" id="Fill-1" fill="#231F20"></path>
            <path d="M22.9271155,2.29501694 C23.5131275,2.29501694 23.971848,1.83629642 23.971848,1.2502845 C23.971848,0.66474402 23.5131275,0.205552052 22.9271155,0.205552052 L15.6564189,0.205552052 C15.0487203,0.205552052 14.5904712,0.663329671 14.5904712,1.27055683 L14.5904712,17.0990077 C14.5904712,17.6850196 15.0501346,18.1442116 15.6361466,18.1442116 L22.9271155,18.1442116 C23.5131275,18.1442116 23.971848,17.6850196 23.971848,17.0990077 C23.971848,16.5134672 23.5131275,16.0547467 22.9271155,16.0547467 L16.680879,16.0547467 L16.680879,10.2196143 L21.4561926,10.2196143 C22.0422045,10.2196143 22.500925,9.7604223 22.500925,9.17488182 C22.500925,8.5888699 22.0422045,8.13014938 21.4561926,8.13014938 L16.680879,8.13014938 L16.680879,2.29501694 L22.9271155,2.29501694 Z" id="Fill-3" fill="#231F20"></path>
            <path d="M32.7979042,9.49702337 L35.0589768,4.00887789 L37.2818619,9.49702337 L32.7979042,9.49702337 Z M42.4951522,16.7012456 L36.0433637,0.879866499 C35.881185,0.473948343 35.4978964,0.211350882 35.0669914,0.211350882 L35.0660485,0.211350882 C34.635615,0.211350882 34.2518549,0.472533994 34.0915621,0.871851855 L27.6011146,16.6687156 C27.3767046,17.1967392 27.6020575,17.7954803 28.1140518,18.0316766 C28.6326465,18.271173 29.2394022,18.0547776 29.4963422,17.540426 C29.5067141,17.5196822 29.5161431,17.498467 29.5251007,17.4767803 L31.9398658,11.5883741 L38.1488578,11.5883741 L40.5513653,17.4923381 C40.7248588,17.8949562 41.1133333,18.1382242 41.5234945,18.1382242 C41.6465429,18.1382242 41.771477,18.116066 41.893111,18.069864 C42.4187774,17.8704408 42.6931611,17.2962151 42.5177818,16.7625341 C42.5107101,16.7417903 42.5031669,16.721518 42.4951522,16.7012456 L42.4951522,16.7012456 Z" id="Fill-5" fill="#231F20"></path>
            <path d="M58.8836853,14.6700991 C58.8370118,14.6974431 58.7926955,14.7285588 58.7516794,14.7634461 C58.2453425,15.1896366 57.8177376,15.4772209 57.3236584,15.7252034 C56.5443521,16.1141494 55.5957954,16.3201729 54.5802928,16.3201729 C52.4323682,16.3201729 50.2783147,15.4093321 49.0897901,13.9963975 C48.0224281,12.7399841 47.4350018,11.0856673 47.4350018,9.33847485 C47.4350018,6.32638298 49.2326393,3.54813014 51.8152406,2.57882964 C52.662907,2.25117212 53.5671475,2.09135069 54.5802928,2.09135069 C56.2105657,2.09135069 57.6060567,2.50481204 58.8464408,3.35530723 C58.9011289,3.39255175 58.9595887,3.42413888 59.0204057,3.44912571 C59.4795977,3.63911992 60.0095071,3.47646979 60.2834193,3.06583714 C60.557803,2.65379013 60.5002862,2.09842243 60.1471704,1.74624954 C60.1070972,1.70617632 60.0632524,1.66987469 60.0165788,1.63734467 C58.4409941,0.551124652 56.6117694,0 54.5802928,0 C53.3168077,0 52.1664706,0.200366105 51.0538494,0.616184705 C47.638668,1.9338865 45.344594,5.43911472 45.344594,9.33847485 C45.344594,11.5618314 46.1050423,13.691841 47.4878041,15.340029 C49.0916759,17.2333709 51.8095832,18.4096378 54.5802928,18.4096378 C55.9126096,18.4096378 57.1812806,18.1281823 58.2387422,17.6001587 C58.882271,17.288059 59.4418817,16.913728 60.1103973,16.3484598 C60.1877151,16.2829283 60.2541895,16.2051391 60.3069918,16.1183924 C60.5582745,15.7049311 60.5002862,15.1778503 60.1650855,14.8360493 C59.8298848,14.4942483 59.3028041,14.4258881 58.8836853,14.6700991" id="Fill-7" fill="#231F20"></path>
            <path d="M77.8924413,0.205693486 C77.3064294,0.205693486 76.8477088,0.664414005 76.8477088,1.25042593 L76.8477088,8.13029081 L67.6440686,8.13029081 L67.6440686,1.25042593 C67.6440686,0.664414005 67.1848766,0.205693486 66.5983932,0.205693486 C66.0128528,0.205693486 65.5541322,0.664414005 65.5541322,1.25042593 L65.5541322,17.0991491 C65.5541322,17.6851611 66.0128528,18.1438816 66.5983932,18.1438816 C67.1848766,18.1438816 67.6440686,17.6851611 67.6440686,17.0991491 L67.6440686,10.2192843 L76.8477088,10.2192843 L76.8477088,17.0991491 C76.8477088,17.6851611 77.3064294,18.1438816 77.8924413,18.1438816 C78.4789247,18.1438816 78.9381166,17.6851611 78.9381166,17.0991491 L78.9381166,1.25042593 C78.9381166,0.664414005 78.4789247,0.205693486 77.8924413,0.205693486" id="Fill-9" fill="#231F20"></path>
            <path d="M121.502242,16.054511 L115.297022,16.054511 L115.297022,1.25052022 C115.297022,0.664508295 114.83783,0.205787776 114.251818,0.205787776 C113.664863,0.205787776 113.205199,0.664508295 113.205199,1.25052022 L113.205199,17.0992434 C113.205199,17.6946843 113.654962,18.1439759 114.251818,18.1439759 L121.502242,18.1439759 C122.087782,18.1439759 122.546974,17.6847839 122.546974,17.0992434 C122.546974,16.5132315 122.087782,16.054511 121.502242,16.054511" id="Fill-11" fill="#231F20"></path>
            <path d="M128.494359,0.205693486 C127.908819,0.205693486 127.449627,0.664414005 127.449627,1.25042593 L127.449627,17.0991491 C127.449627,17.6851611 127.908819,18.1438816 128.494359,18.1438816 C129.080371,18.1438816 129.539563,17.6851611 129.539563,17.0991491 L129.539563,1.25042593 C129.539563,0.664414005 129.080371,0.205693486 128.494359,0.205693486" id="Fill-13" fill="#231F20"></path>
            <path d="M145.042053,16.054511 L138.836833,16.054511 L138.836833,1.25052022 C138.836833,0.664508295 138.377641,0.205787776 137.792101,0.205787776 C137.205146,0.205787776 136.745011,0.664508295 136.745011,1.25052022 L136.745011,17.0992434 C136.745011,17.6946843 137.195245,18.1439759 137.792101,18.1439759 L145.042053,18.1439759 C145.627594,18.1439759 146.086786,17.6847839 146.086786,17.0992434 C146.086786,16.5132315 145.627594,16.054511 145.042053,16.054511" id="Fill-15" fill="#231F20"></path>
            <path d="M159.850334,0.709390303 C159.652326,0.385032937 159.290252,0.188909879 158.909321,0.207296415 C158.529332,0.221911355 158.186589,0.442549795 158.028653,0.755592369 L153.857266,8.36714712 L149.750468,0.782465 C149.487871,0.263398925 148.874043,0.0616184705 148.35262,0.323273031 C147.83544,0.583041794 147.623759,1.21525579 147.896728,1.76166594 L152.807819,10.8229284 L152.807819,17.0993377 C152.807819,17.6848782 153.26654,18.1440702 153.85208,18.1440702 C154.438092,18.1440702 154.896813,17.6848782 154.896813,17.0993377 L154.896813,10.8059562 L159.859292,1.77769523 C160.050229,1.44108017 160.046457,1.03186187 159.850334,0.709390303" id="Fill-17" fill="#231F20"></path>
            <g id="Group-21" transform="translate(87.539056, 0.092593)">
                <mask id="mask-2" fill="white">
                    <use xlink:href="#path-1"></use>
                </mask>
                <g id="Clip-20"></g>
                <path d="M6.12695977,17.367734 C3.65656356,17.367734 2.12718086,15.2457391 2.12718086,13.2793226 C2.12718086,11.8833601 2.82304056,10.6745632 4.19920212,9.67791861 L4.29820655,9.80096697 C4.63906465,10.2262146 4.9813371,10.6590054 5.32643825,11.0946248 C6.67336993,12.7970296 8.06084628,14.5489365 9.57231389,16.1396076 C8.50589476,16.9740735 7.39280211,17.367734 6.12695977,17.367734 M21.057299,19.7862708 C20.6480807,19.5760042 20.1516442,19.6566221 19.8221009,19.9866369 L19.7443117,20.0639546 L19.5524317,20.3769972 C19.0574096,21.1893049 18.9716057,21.263794 18.5345719,21.263794 C17.8165541,21.263794 17.1961263,20.7286986 16.5973853,20.2044466 L12.5287747,16.1575227 C13.5673783,14.8006906 14.3414986,12.9940955 14.834635,10.7716818 L14.8445354,10.7207653 C14.9359967,10.1686977 14.5786378,9.64020264 14.0317562,9.51762573 C13.4801601,9.39410591 12.9455362,9.71516313 12.7890149,10.264402 L12.7715713,10.334648 C12.4255272,12.0271523 11.8183001,13.5155188 11.0290933,14.62814 C9.53931241,13.0643415 8.15372186,11.299234 6.80631873,9.58504303 C6.51826299,9.21731229 6.23209305,8.85288171 5.946866,8.49363706 L5.91622178,8.45544964 C5.06478369,7.39091631 3.89841723,5.93272251 3.89841723,4.61784941 C3.89841723,2.96824706 5.06384079,2.10455128 6.21512086,2.10455128 C7.26315345,2.10455128 8.14665012,2.73582237 8.578498,3.79328396 L8.63082892,3.92057537 L8.71663275,4.02759444 C9.01128879,4.39391083 9.47802395,4.53440282 9.91034329,4.38212458 C10.3308764,4.23408939 10.6137462,3.82722834 10.6137462,3.37039362 L10.6137462,3.18275665 L10.5416144,3.00973463 C9.77362289,1.15316587 8.12402053,0 6.2363361,0 C4.08275405,0 1.79386595,1.61848668 1.79386595,4.61784941 C1.79386595,5.87190551 2.31387493,6.99819874 2.94561747,7.98352853 C1.06076173,9.28802974 1.33994052e-14,11.1728855 1.33994052e-14,13.2793226 C1.33994052e-14,16.7515493 2.68160566,19.4713424 6.10527309,19.4713424 C7.96749924,19.4713424 9.59777217,18.8792016 11.0635092,17.6647473 L15.1354199,21.7159142 L15.1707786,21.7489157 C16.0575754,22.5447227 16.9750164,23.3678738 18.4690404,23.3678738 C20.1808741,23.3678738 20.7730149,22.4117739 21.4589741,21.3048101 L21.5853227,21.1006724 L21.6159669,20.9163356 C21.6928132,20.4514862 21.4684031,19.9974802 21.057299,19.7862708" id="Fill-19" fill="#231F20" mask="url(#mask-2)"></path>
            </g>
        </g>
    </g>
</svg>