<?xml version="1.0" encoding="UTF-8"?>
<svg width="214px" height="214px" viewBox="0 0 214 214" version="1.1" xmlns="http://www.w3.org/2000/svg" xmlns:xlink="http://www.w3.org/1999/xlink">
    <title>Tarte_BrandLogo</title>
    <defs>
        <polygon id="path-1" points="0 0 27.8343955 0 27.8343955 27.8635431 0 27.8635431"></polygon>
        <polygon id="path-3" points="0 0 13.5526363 0 13.5526363 36.5148947 0 36.5148947"></polygon>
        <polygon id="path-5" points="0 0 14.1186256 0 14.1186256 6.23467253 0 6.23467253"></polygon>
    </defs>
    <g id="Tarte_BrandLogo" stroke="none" stroke-width="1" fill="none" fill-rule="evenodd">
        <g id="Group"></g>
        <g id="Group-16" transform="translate(48.000000, 88.000000)">
            <polygon id="Fill-1" fill="#231F20" points="4.69290969 0 4.69290969 9.91326457 1.20119341e-15 9.91326457 1.20119341e-15 12.8344994 4.69290969 12.8344994 4.69290969 36.5154357 8.11454126 36.5154357 8.11454126 12.8344994 13.522883 12.8344994 13.522883 9.91326457 8.11454126 9.91326457 8.11454126 0"></polygon>
            <g id="Group-15" transform="translate(17.214562, 0.000270)">
                <g id="Group-4" transform="translate(-0.000000, 9.342981)">
                    <mask id="mask-2" fill="white">
                        <use xlink:href="#path-1"></use>
                    </mask>
                    <g id="Clip-3"></g>
                    <path d="M14.1072966,3.2747249 C12.2680005,3.24361916 10.4544006,3.7115577 8.85989322,4.62714844 C7.24239466,5.55626342 5.91701959,6.91950635 5.03253459,8.56270095 C4.07501873,10.2031907 3.57867928,12.07224 3.59896564,13.9723951 C3.60167049,15.8482066 4.0966575,17.688855 5.03253459,19.3144681 C5.92783898,20.9671297 7.2559189,22.3466017 8.87341746,23.3041176 C10.4489909,24.2372898 12.2477142,24.7268671 14.0802481,24.7241734 C15.9411829,24.7241734 17.7696595,24.234585 19.3817484,23.3041176 C21.0046566,22.4223374 22.3449084,21.1010196 23.2496797,19.4902832 C24.1585083,17.8335643 24.6250945,15.9699247 24.6021033,14.080589 C24.6764866,11.2107463 23.5837283,8.43286829 21.5726745,6.38529905 C19.6346516,4.33772981 16.9257472,3.19763676 14.1072966,3.24767643 L14.1072966,3.2747249 Z M27.8343955,0.569877815 L27.8343955,27.1720489 L24.3857155,27.1720489 L24.3857155,22.5873331 C23.0887413,24.2318801 21.4441943,25.5707794 19.5710877,26.5093614 C17.7480207,27.4019609 15.7437291,27.8658422 13.7150937,27.8617849 C10.0703123,27.9239964 6.56618289,26.4512072 4.05878964,23.8045143 C1.41074435,21.1794602 -0.0539303516,17.5914805 0.00151901364,13.8642012 C-0.0377012691,10.1788471 1.42697343,6.63820225 4.05878964,4.05913056 C6.58917409,1.42055222 10.1000656,-0.0481797446 13.7556664,0.00185992652 C15.8154075,-0.0333030856 17.8521574,0.43057819 19.6928058,1.35428347 C21.5483309,2.35237204 23.1401334,3.78188373 24.3316186,5.51974798 L24.3316186,0.569877815 L27.8343955,0.569877815 Z" id="Fill-2" fill="#231F20" mask="url(#mask-2)"></path>
                </g>
                <path d="M34.2713906,9.91285884 L37.7335949,9.91285884 L37.7335949,13.7943144 C38.599146,12.4432433 39.7257148,11.280159 41.0470326,10.3726828 C42.1208569,9.65589837 43.3813156,9.27045766 44.6715277,9.26369554 C45.7426471,9.30021098 46.7853657,9.61262082 47.7009564,10.1698193 L45.930634,13.0369572 C45.3585588,12.7759395 44.7445585,12.624468 44.117034,12.5906575 C42.8822713,12.6095914 41.7002531,13.0924066 40.8035963,13.943081 C39.5904724,15.137271 38.7411504,16.6519854 38.3557097,18.311409 C37.8215024,21.3367805 37.6132292,24.4108392 37.7335949,27.4808407 L37.7335949,36.5150299 L34.2713906,36.5150299 L34.2713906,9.91285884 Z" id="Fill-5" fill="#231F20"></path>
                <g id="Group-9" transform="translate(51.446358, 0.000000)">
                    <mask id="mask-4" fill="white">
                        <use xlink:href="#path-3"></use>
                    </mask>
                    <g id="Clip-8"></g>
                    <polygon id="Fill-7" fill="#231F20" mask="url(#mask-4)" points="4.69426212 -0.000540969417 8.14294215 -0.000540969417 8.14294215 9.9127236 13.5526363 9.9127236 13.5526363 12.8339585 8.14294215 12.8339585 8.14294215 36.5148947 4.69426212 36.5148947 4.69426212 12.8339585 0 12.8339585 0 9.9127236 4.69426212 9.9127236"></polygon>
                </g>
                <path d="M89.9512089,20.5288427 C89.603636,18.9722032 88.9301291,17.5061761 87.9766705,16.2281358 C87.0543176,15.0623467 85.8668898,14.1359366 84.5131138,13.5232887 C83.102536,12.8578964 81.5580684,12.5157332 79.9973716,12.5224953 C77.5062074,12.4629887 75.0867217,13.3569406 73.2352539,15.0244789 C71.7056628,16.5364884 70.6250764,18.4420532 70.1111555,20.5288427 L89.9512089,20.5288427 Z M89.9512089,27.7115641 L92.831871,29.2114018 C92.0339411,30.8802925 90.947945,32.3950069 89.6266272,33.6879238 C88.4135033,34.8117877 86.9934586,35.6881582 85.4476385,36.2724052 C83.7625187,36.8864054 81.9786721,37.1839386 80.1853585,37.150128 C76.3363611,37.3516391 72.6023196,35.7882375 70.0421819,32.9035181 C67.6659737,30.2608825 66.3568277,26.8284315 66.3649423,23.2742625 C66.3338365,20.0081596 67.4333569,16.8313167 69.474164,14.2806459 C71.9693854,11.0037237 75.8941186,9.13467434 80.0095434,9.26315457 C84.2331621,9.13602676 88.2606794,11.0483536 90.8289317,14.402364 C92.7885935,17.0138939 93.7947966,20.2164328 93.6838978,23.4784784 L69.8122699,23.4784784 C69.7676399,26.3118058 70.8360545,29.0504634 72.7889541,31.1047948 C74.6160783,33.0387605 77.1748636,34.1139372 79.8350808,34.0679548 C81.1820946,34.0638975 82.5182891,33.825871 83.7828051,33.3633421 C84.9729378,32.9427384 86.0778678,32.3111566 87.0434982,31.4969976 C88.1957631,30.3866579 89.1762702,29.1113225 89.9512089,27.7115641 L89.9512089,27.7115641 Z" id="Fill-10" fill="#231F20"></path>
                <g id="Group-14" transform="translate(88.666812, 1.527562)">
                    <mask id="mask-6" fill="white">
                        <use xlink:href="#path-5"></use>
                    </mask>
                    <g id="Clip-13"></g>
                    <path d="M14.1193018,0 L14.1193018,6.23467253 L13.0360105,6.23467253 L13.0360105,1.17660848 L10.7233663,6.23467253 L10.0079342,6.23467253 L7.72233843,1.17660848 L7.72233843,6.23467253 L6.6403996,6.23467253 L6.6403996,0 L8.42424625,0 L10.4271855,4.32775534 L12.4679926,0 L14.1193018,0 Z M5.47596293,0 L5.47596293,1.00079342 L3.27151255,1.00079342 L3.27151255,6.23467253 L2.19092614,6.23467253 L2.19092614,1.00079342 L0,1.00079342 L0,0 L5.47596293,0 Z" id="Fill-12" fill="#231F20" mask="url(#mask-6)"></path>
                </g>
            </g>
        </g>
    </g>
</svg>